<?xml version="1.0" encoding="UTF-8" standalone="no"?>
<svg
   class="bi bi-filetype-doc"
   fill="currentColor" 
   focusable="false" 
   role="img" 
   style="display:inline-block;user-select:none;vertical-align:text-bottom;overflow:visible" 
   viewbox="0 0 16 16" 
   width="32"
   height="32" />
     <path
     fill-rule="evenodd"
     d="M14 4.5V14a2 2 0 0 1-2 2v-1a1 1 0 0 0 1-1V4.5h-2A1.5 1.5 0 0 1 9.5 3V1H4a1 1 0 0 0-1 1v9H2V2a2 2 0 0 1 2-2h5.5L14 4.5Zm-7.839 9.166v.522c0 .256-.039.47-.117.641a.861.861 0 0 1-.322.387.877.877 0 0 1-.469.126.883.883 0 0 1-.471-.126.868.868 0 0 1-.32-.386 1.55 1.55 0 0 1-.117-.642v-.522c0-.257.04-.471.117-.641a.868.868 0 0 1 .32-.387.868.868 0 0 1 .471-.129c.176 0 .332.043.469.13a.861.861 0 0 1 .322.386c.078.17.117.384.117.641Zm.803.519v-.513c0-.377-.068-.7-.205-.972a1.46 1.46 0 0 0-.589-.63c-.254-.147-.56-.22-.917-.22-.355 0-.662.073-.92.22a1.441 1.441 0 0 0-.589.627c-.136.271-.205.596-.205.975v.513c0 .375.069.7.205.973.137.271.333.48.59.627.257.144.564.216.92.216.357 0 .662-.072.916-.216.256-.147.452-.356.59-.627.136-.274.204-.598.204-.973ZM0 11.926v4h1.459c.402 0 .735-.08.999-.238a1.45 1.45 0 0 0 .595-.689c.13-.3.196-.662.196-1.084 0-.42-.065-.778-.196-1.075a1.426 1.426 0 0 0-.59-.68c-.263-.156-.598-.234-1.004-.234H0Zm.791.645h.563c.248 0 .45.05.609.152a.89.89 0 0 1 .354.454c.079.201.118.452.118.753a2.3 2.3 0 0 1-.068.592 1.141 1.141 0 0 1-.196.422.8.8 0 0 1-.334.252 1.298 1.298 0 0 1-.483.082H.79V12.57Zm7.422.483a1.732 1.732 0 0 0-.103.633v.495c0 .246.034.455.103.627a.834.834 0 0 0 .298.393.845.845 0 0 0 .478.131.868.868 0 0 0 .401-.088.699.699 0 0 0 .273-.248.8.8 0 0 0 .117-.364h.765v.076a1.268 1.268 0 0 1-.226.674c-.137.194-.32.345-.55.454a1.81 1.81 0 0 1-.786.164c-.36 0-.664-.072-.914-.216a1.424 1.424 0 0 1-.571-.627c-.13-.272-.194-.597-.194-.976v-.498c0-.379.066-.705.197-.978.13-.274.321-.485.571-.633.252-.149.556-.223.911-.223.219 0 .421.032.607.097.187.062.35.153.489.272a1.326 1.326 0 0 1 .466.964v.073H9.78a.85.85 0 0 0-.12-.38.7.7 0 0 0-.273-.261.802.802 0 0 0-.398-.097.814.814 0 0 0-.475.138.868.868 0 0 0-.301.398Z"
     id="path2" />
     <path
     fill-rule="evenodd"
     d="m 7.9252131,3.4634751 c -2.2713158,0 -4.1109791,1.8999084 -4.1109791,4.2456062 0,1.87868 1.1767678,3.4654757 2.8108821,4.0280187 0.20555,0.03715 0.28263,-0.09022 0.28263,-0.201667 0,-0.100833 -0.0051,-0.435174 -0.0051,-0.790744 C 5.8697334,10.941048 5.6025199,10.484646 5.5203001,10.24583 5.4740487,10.123769 5.2736416,9.7469714 5.098925,9.6461384 4.9550404,9.5665321 4.7494914,9.3701741 5.0937956,9.3648671 5.417535,9.3595984 5.6487775,9.672673 5.7258583,9.8000414 6.0958465,10.44219 6.6868001,10.261751 6.9231821,10.150304 c 0.035975,-0.2759642 0.143883,-0.4617097 0.262074,-0.5678498 -0.914693,-0.10614 -1.870495,-0.4723239 -1.870495,-2.096268 0,-0.461709 0.1592998,-0.8438142 0.4213751,-1.141006 -0.041113,-0.10614 -0.1849945,-0.5413152 0.041113,-1.1250855 0,0 0.3442943,-0.1114472 1.1305199,0.4351743 0.328878,-0.095526 0.678311,-0.1432888 1.027744,-0.1432888 0.349434,0 0.698867,0.04776 1.027745,0.1432888 0.786225,-0.5519285 1.1305199,-0.4351743 1.1305199,-0.4351743 0.226103,0.5837703 0.08222,1.0189455 0.04111,1.1250855 0.262074,0.2971918 0.421375,0.6739899 0.421375,1.141006 0,1.6292511 -0.9609409,1.990128 -1.8756339,2.096268 0.149022,0.1326755 0.27749,0.3874114 0.27749,0.7854378 0,0.567849 -0.0051,1.024252 -0.0051,1.167541 0,0.111447 0.07708,0.244123 0.28263,0.201667 A 4.11766,4.2525049 0 0 0 12.036255,7.7090813 c 0,-2.3456978 -1.839663,-4.2456062 -4.1109799,-4.2456062 z"
     id="path245"
     style="stroke-width:0.522219" />
</svg>
